<mxfile host="app.diagrams.net" agent="Mozilla/5.0 (Windows NT 10.0; Win64; x64) AppleWebKit/537.36 (KHTML, like Gecko) Chrome/137.0.0.0 Safari/537.36" version="27.1.6">
  <diagram name="PÃ¡gina-1" id="NCMWjbvPReTygnXJZkeF">
    <mxGraphModel grid="1" page="1" gridSize="10" guides="1" tooltips="1" connect="1" arrows="1" fold="1" pageScale="1" pageWidth="827" pageHeight="1169" math="0" shadow="0">
      <root>
        <mxCell id="0" />
        <mxCell id="1" parent="0" />
        <mxCell id="Os0LBhJ-KNS1Nbwb58jq-2" value="CU009 Listado de eventos" style="swimlane;childLayout=stackLayout;resizeParent=1;resizeParentMax=0;startSize=20;horizontal=0;horizontalStack=1;" vertex="1" parent="1">
          <mxGeometry x="24" y="140" width="780" height="445" as="geometry">
            <mxRectangle x="200" y="80" width="40" height="50" as="alternateBounds" />
          </mxGeometry>
        </mxCell>
        <mxCell id="Os0LBhJ-KNS1Nbwb58jq-3" value="" style="edgeStyle=orthogonalEdgeStyle;html=1;verticalAlign=bottom;endArrow=open;endSize=8;strokeColor=#ff0000;rounded=0;entryX=0;entryY=0.5;entryDx=0;entryDy=0;" edge="1" parent="Os0LBhJ-KNS1Nbwb58jq-2" source="Os0LBhJ-KNS1Nbwb58jq-8" target="Os0LBhJ-KNS1Nbwb58jq-17">
          <mxGeometry relative="1" as="geometry">
            <mxPoint x="80" y="100" as="targetPoint" />
          </mxGeometry>
        </mxCell>
        <mxCell id="Os0LBhJ-KNS1Nbwb58jq-31" value="" style="edgeStyle=orthogonalEdgeStyle;html=1;verticalAlign=bottom;endArrow=open;endSize=8;strokeColor=#ff0000;rounded=0;entryX=1;entryY=0.5;entryDx=0;entryDy=0;exitX=0;exitY=0.5;exitDx=0;exitDy=0;" edge="1" parent="Os0LBhJ-KNS1Nbwb58jq-2" source="Os0LBhJ-KNS1Nbwb58jq-22" target="Os0LBhJ-KNS1Nbwb58jq-29">
          <mxGeometry relative="1" as="geometry">
            <mxPoint x="461" y="420" as="targetPoint" />
            <mxPoint x="461" y="360" as="sourcePoint" />
          </mxGeometry>
        </mxCell>
        <mxCell id="Os0LBhJ-KNS1Nbwb58jq-5" value="Usuario" style="swimlane;startSize=20;" vertex="1" parent="Os0LBhJ-KNS1Nbwb58jq-2">
          <mxGeometry x="20" width="290" height="445" as="geometry" />
        </mxCell>
        <mxCell id="Os0LBhJ-KNS1Nbwb58jq-8" value="Pulsa el apartado &quot;Eventos&quot;" style="rounded=1;whiteSpace=wrap;html=1;arcSize=40;fontColor=#000000;fillColor=#ffffc0;strokeColor=#ff0000;" vertex="1" parent="Os0LBhJ-KNS1Nbwb58jq-5">
          <mxGeometry x="56" y="190" width="150" height="40" as="geometry" />
        </mxCell>
        <mxCell id="Os0LBhJ-KNS1Nbwb58jq-9" value="" style="edgeStyle=orthogonalEdgeStyle;html=1;verticalAlign=bottom;endArrow=open;endSize=8;strokeColor=#ff0000;rounded=0;" edge="1" parent="Os0LBhJ-KNS1Nbwb58jq-5">
          <mxGeometry relative="1" as="geometry">
            <mxPoint x="130.8" y="190" as="targetPoint" />
            <mxPoint x="130.8" y="65" as="sourcePoint" />
            <Array as="points">
              <mxPoint x="130.8" y="65" />
            </Array>
          </mxGeometry>
        </mxCell>
        <mxCell id="Os0LBhJ-KNS1Nbwb58jq-29" value="" style="ellipse;html=1;shape=endState;fillColor=#000000;strokeColor=#ff0000;" vertex="1" parent="Os0LBhJ-KNS1Nbwb58jq-5">
          <mxGeometry x="130" y="360" width="30" height="30" as="geometry" />
        </mxCell>
        <mxCell id="Os0LBhJ-KNS1Nbwb58jq-33" value="" style="ellipse;html=1;shape=startState;fillColor=#000000;strokeColor=#ff0000;" vertex="1" parent="Os0LBhJ-KNS1Nbwb58jq-5">
          <mxGeometry x="116" y="40" width="30" height="30" as="geometry" />
        </mxCell>
        <mxCell id="Os0LBhJ-KNS1Nbwb58jq-16" value="Sistema" style="swimlane;startSize=20;" vertex="1" parent="Os0LBhJ-KNS1Nbwb58jq-2">
          <mxGeometry x="310" width="470" height="445" as="geometry">
            <mxRectangle x="310" width="40" height="720" as="alternateBounds" />
          </mxGeometry>
        </mxCell>
        <mxCell id="Os0LBhJ-KNS1Nbwb58jq-32" style="edgeStyle=orthogonalEdgeStyle;rounded=0;orthogonalLoop=1;jettySize=auto;html=1;exitX=1;exitY=0.5;exitDx=0;exitDy=0;entryX=1;entryY=0.5;entryDx=0;entryDy=0;strokeColor=light-dark(#ff0000, #ededed);" edge="1" parent="Os0LBhJ-KNS1Nbwb58jq-16" source="Os0LBhJ-KNS1Nbwb58jq-17" target="Os0LBhJ-KNS1Nbwb58jq-22">
          <mxGeometry relative="1" as="geometry" />
        </mxCell>
        <mxCell id="Os0LBhJ-KNS1Nbwb58jq-17" value="Mostrar apartado" style="rounded=1;whiteSpace=wrap;html=1;arcSize=40;fontColor=#000000;fillColor=#ffffc0;strokeColor=#ff0000;" vertex="1" parent="Os0LBhJ-KNS1Nbwb58jq-16">
          <mxGeometry x="175" y="180" width="120" height="60" as="geometry" />
        </mxCell>
        <mxCell id="Os0LBhJ-KNS1Nbwb58jq-21" style="edgeStyle=orthogonalEdgeStyle;rounded=0;orthogonalLoop=1;jettySize=auto;html=1;exitX=0.5;exitY=1;exitDx=0;exitDy=0;" edge="1" parent="Os0LBhJ-KNS1Nbwb58jq-16">
          <mxGeometry relative="1" as="geometry">
            <mxPoint x="86" y="360" as="sourcePoint" />
            <mxPoint x="86" y="360" as="targetPoint" />
          </mxGeometry>
        </mxCell>
        <mxCell id="Os0LBhJ-KNS1Nbwb58jq-22" value="Mostrar listado eventos" style="rounded=1;whiteSpace=wrap;html=1;arcSize=40;fontColor=#000000;fillColor=#ffffc0;strokeColor=#ff0000;" vertex="1" parent="Os0LBhJ-KNS1Nbwb58jq-16">
          <mxGeometry x="196" y="350" width="120" height="50" as="geometry" />
        </mxCell>
      </root>
    </mxGraphModel>
  </diagram>
</mxfile>
